<svg width="1724" height="3315" viewBox="0 0 1724 3315" fill="none" xmlns="http://www.w3.org/2000/svg">
<path d="M376.49 822.096C420.794 331.507 1416.99 -74.8333 1723.99 12.5V297C1723.99 297 982.992 320.596 683.492 522.596C383.992 724.595 459.181 912.959 511.992 1003.09C624.492 1195.09 1314.22 1106.5 1463.49 1420.09C1671.99 1858.09 1379.99 2099.89 1297.49 2155.09C1162.99 2245.09 865.973 2454.38 780.992 2671.59C682.992 2922.09 841.326 3151.92 933.492 3314.09C909.5 3314.09 1.1184 3314.49 1.00003 3314C-19.0004 3232 611.992 2459.09 1066.99 2071.09C1545.09 1663.39 1048.49 1386.09 891.492 1327.5C734.492 1268.91 328.492 1353.59 376.49 822.096Z" fill="#FE2C55"/>
</svg>
