<svg width="81" height="79" viewBox="0 0 81 79" fill="none" xmlns="http://www.w3.org/2000/svg">
<path d="M47.25 79C39.5361 79.0124 32.0526 76.4365 26.055 71.7045C31.0517 72.6472 36.1858 72.6629 41.1885 71.7506C47.3753 73.1407 53.8664 72.3597 59.5215 69.5448C60.1997 69.2067 60.9752 69.1022 61.722 69.2485L73.3252 71.5135L71.0032 60.1884C70.8548 59.4621 70.9619 58.7082 71.307 58.0485C74.1927 52.5322 74.9933 46.2004 73.5682 40.1654C74.5018 35.2898 74.4857 30.2863 73.521 25.4164C78.3691 31.2633 81.0096 38.5581 81 46.0781C81.004 50.8868 79.928 55.638 77.8477 59.9975L80.9325 75.0625C81.0409 75.5936 81.0133 76.1425 80.8522 76.6607C80.6911 77.1789 80.4014 77.6503 80.0089 78.0332C79.6164 78.4161 79.1331 78.6986 78.6019 78.8558C78.0707 79.0129 77.5079 79.0398 76.9635 78.9341L61.5127 75.9251C57.0456 77.9533 52.1773 79.0029 47.25 79ZM6.25044e-06 32.9094C0.0027592 25.7854 2.37444 18.8544 6.75899 13.157C11.1435 7.45969 17.3044 3.30341 24.3166 1.31217C31.3287 -0.67907 38.8139 -0.397818 45.6482 2.1137C52.4826 4.62522 58.2974 9.23149 62.2197 15.241C66.1419 21.2504 67.96 28.3388 67.4009 35.442C66.8419 42.5451 63.9358 49.2797 59.1191 54.6347C54.3024 59.9897 47.8349 63.6762 40.6876 65.1406C33.5403 66.605 26.0989 65.7684 19.4805 62.7563L4.03651 65.7654C3.49208 65.8711 2.92932 65.8442 2.3981 65.6871C1.86687 65.5299 1.38359 65.2474 0.991067 64.8645C0.598543 64.4816 0.3089 64.0102 0.147802 63.492C-0.0132967 62.9738 -0.0408771 62.4249 0.0675062 61.8938L3.15225 46.8222C1.07295 42.4647 -0.00299234 37.7159 6.25044e-06 32.9094ZM19.5345 22.3349C18.6873 23.1655 18.0163 24.1509 17.5597 25.2346C17.1032 26.3184 16.8702 27.4793 16.8739 28.6509C16.8777 29.8226 17.1182 30.9821 17.5817 32.063C18.0451 33.1439 18.7225 34.1252 19.575 34.9506L32.8117 47.8559C33.0767 48.1093 33.433 48.2512 33.804 48.2512C34.175 48.2512 34.5313 48.1093 34.7962 47.8559L47.9722 35.0164C49.6782 33.3386 50.6315 31.0687 50.6227 28.7056C50.6138 26.3425 49.6435 24.0795 47.925 22.4139C47.0778 21.5826 46.071 20.9222 44.962 20.4706C43.8531 20.019 42.6638 19.7849 41.4621 19.7819C40.2604 19.7788 39.0699 20.0068 37.9585 20.4528C36.8472 20.8987 35.8369 21.554 34.9852 22.381L33.7297 23.6123L32.4472 22.3678C30.738 20.6932 28.417 19.7491 25.9945 19.7429C23.5719 19.7368 21.2527 20.6691 19.5345 22.3349Z" fill="#FC4D5C"/>
</svg>
