<svg width="158" height="209" viewBox="0 0 158 209" fill="none" xmlns="http://www.w3.org/2000/svg">
<path d="M157.696 153.223C157.538 151.956 157.273 150.701 156.903 149.47C156.551 148.265 156.077 147.116 155.61 145.982C153.627 141.501 151.047 137.245 147.925 133.303L147.913 133.091L147.799 133.147L147.704 133.025L147.618 133.248C147.586 133.262 147.562 133.283 147.535 133.297L147.519 133.276C147.519 133.276 116.371 141.179 82.0469 141.208C47.727 141.237 16.5655 133.388 16.5655 133.388L16.1561 134.081C15.9862 133.858 15.8361 133.632 15.6624 133.416L15.6503 133.204L15.536 133.26L15.4373 133.138L15.3507 133.361C10.4316 135.935 6.12855 139.347 2.85589 143.668C1.45826 145.915 -0.124389 148.472 0.21008 151.376C0.67836 154.022 1.21352 156.518 2.79382 159.017C3.31507 159.608 3.6511 160.335 5.19742 160.62C5.2922 160.735 6.558 160.556 6.84962 160.347C7.31082 160.134 7.67339 159.89 8.00046 159.639C9.09591 158.76 9.84025 157.795 10.5333 156.813C10.1024 159.48 9.69517 162.165 9.82042 164.892C10.0176 168.443 10.353 172.217 12.3995 175.464L12.7385 175.363C12.6321 171.825 13.0899 168.44 13.3542 164.972C13.7094 161.525 13.5359 158.022 13.753 154.526C13.8227 153.412 13.9319 152.287 14.0135 151.179C14.0452 151.273 14.065 151.371 14.0967 151.465C13.9701 154.748 13.8239 158.029 13.8196 161.326C13.7852 165.978 13.6602 170.679 14.4344 175.334C14.8353 177.659 15.3032 179.985 16.0669 182.255C16.8187 184.517 17.7244 186.811 19.2686 188.76L19.5918 188.617C18.4826 184.094 18.3159 179.551 17.9559 174.983C17.6591 170.418 16.9994 165.85 16.6473 161.24C16.5149 159.235 16.4536 157.222 16.3488 155.217C17.1149 156.107 17.9164 156.942 18.7613 157.756C19.7285 158.626 20.5736 159.576 22.0178 160.243C22.6413 160.563 24.373 160.896 25.0852 159.349C25.5102 158.485 25.5528 157.824 25.6231 157.145C25.6884 155.87 25.621 154.592 25.4217 153.328C25.2663 152.064 25.0039 150.812 24.6367 149.583C24.2844 148.371 23.8098 147.229 23.3393 146.088C22.312 143.801 21.139 141.568 19.8258 139.398C45.0444 144.144 65.927 176.178 73.6926 208.637C79.3009 209.097 84.9456 209.092 90.5528 208.623C97.4778 179.375 115.052 150.463 136.883 141.492C136.281 142.165 135.666 142.827 135.119 143.555C133.721 145.802 132.15 148.352 132.481 151.263C132.941 153.909 133.48 156.398 135.061 158.904C135.586 159.488 135.926 160.216 137.464 160.5C137.567 160.615 138.829 160.436 139.12 160.227C139.582 160.014 139.94 159.77 140.267 159.519C141.359 158.647 142.103 157.689 142.788 156.707C142.361 159.374 141.958 162.052 142.079 164.772C142.276 168.323 142.612 172.097 144.658 175.344L145.001 175.243C144.895 171.706 145.349 168.321 145.613 164.852C145.968 161.405 145.795 157.902 146.012 154.406C146.086 153.285 146.191 152.16 146.276 151.039L146.359 151.331C146.233 154.615 146.087 157.909 146.082 161.206C146.044 165.865 145.927 170.559 146.701 175.214C147.102 177.539 147.574 179.865 148.334 182.142C149.085 184.397 149.995 186.698 151.547 188.64L151.863 188.497C150.753 183.975 150.583 179.431 150.219 174.863C149.918 170.298 149.258 165.73 148.91 161.12C148.774 159.115 148.708 157.102 148.608 155.09C149.374 155.98 150.183 156.822 151.024 157.643C151.991 158.506 152.832 159.456 154.285 160.123C154.908 160.443 156.64 160.769 157.352 159.229C157.781 158.365 157.82 157.7 157.886 157.025C157.957 155.755 157.893 154.482 157.696 153.223ZM7.97155 154.841C7.38113 155.91 6.71971 156.969 6.02645 157.76C5.88518 157.926 5.72548 158.079 5.54974 158.217C5.25013 158.332 5.81806 158.345 5.22654 158.402C5.37259 158.516 4.64269 158.266 4.29917 157.898C2.60546 156.28 1.47862 153.697 1.35373 151.302C1.26961 150.118 1.87586 149.104 2.63989 148.111C3.3921 147.125 4.28637 146.212 5.20036 145.306C8.48965 141.765 11.9012 138.207 15.0402 134.259C14.9576 134.479 14.9026 134.688 14.8239 134.907C14.3678 136.105 13.9707 137.304 13.5698 138.498L13.4084 138.777L13.4754 138.777C12.4395 141.857 11.462 144.953 10.5434 148.062C10.2095 149.268 9.83221 150.452 9.4706 151.58C9.1759 152.58 8.5462 153.785 7.97155 154.841ZM19.8148 147.327L21.1199 150.616C21.5627 151.692 21.8714 152.663 22.1449 153.854C22.4025 154.982 22.6443 156.116 22.7835 157.178C22.859 157.694 22.8714 158.261 22.8481 158.519C23.2383 158.334 23.1717 158.71 22.6785 158.568C20.6034 158.026 18.3968 156.238 17.0617 154.37C16.5522 153.684 16.3266 152.901 16.1955 152.1C16.1511 151.167 16.091 150.244 16.0544 149.311C16.0815 148.789 16.1125 148.263 16.1277 147.748C16.1579 144.789 16.106 141.829 15.972 138.872C16.2954 138.9 16.6268 138.945 16.9502 138.979C17.8289 141.806 18.7824 144.601 19.8148 147.327ZM140.246 154.728C139.656 155.797 138.994 156.849 138.301 157.64C138.162 157.81 138.002 157.965 137.824 158.104C137.521 158.212 138.093 158.232 137.501 158.289C137.643 158.403 136.913 158.153 136.57 157.785C134.876 156.174 133.745 153.591 133.628 151.196C133.544 150.012 134.147 148.991 134.911 147.998C135.663 147.012 136.553 146.099 137.467 145.193C139.169 143.37 140.894 141.523 142.604 139.638C143.598 139.401 144.599 139.194 145.609 139.044C144.631 142.001 143.699 144.97 142.814 147.95C142.484 149.155 142.103 150.346 141.745 151.474C141.443 152.474 140.817 153.672 140.246 154.728ZM154.945 158.455C152.866 157.913 150.66 156.126 149.325 154.257C148.807 153.557 148.581 152.76 148.454 151.939C148.41 151.04 148.354 150.149 148.317 149.258C148.344 148.714 148.379 148.168 148.394 147.631C148.422 144.672 148.368 141.713 148.231 138.756C148.542 138.728 148.854 138.727 149.166 138.713C150.06 141.596 151.029 144.44 152.082 147.21L153.387 150.5C153.833 151.575 154.134 152.54 154.412 153.737C154.673 154.858 154.911 156 155.05 157.062C155.122 157.577 155.138 158.145 155.119 158.402C155.501 158.221 155.434 158.59 154.945 158.455ZM8.89095 47.2666C3.33846 51.3488 4.46107 68.0719 6.0263 74.8153C7.43304 80.8797 13.5913 93.3052 19.222 95.8702C32.3381 101.855 66.7364 97.7969 76.0674 86.751C76.3471 86.4165 76.5398 85.901 76.6574 85.2985L80.4357 85.2953C80.5507 85.901 80.7406 86.4162 81.021 86.7468C90.3841 97.7767 124.787 101.776 137.89 95.7688C143.511 93.1943 149.638 80.7583 151.036 74.6914C152.578 67.9455 153.672 51.2204 148.115 47.1478C147.767 46.905 147.389 46.6963 146.99 46.5254C145.8 43.4135 144.168 36.9662 144.154 24.6922C144.139 10.9661 148.132 1.46376 148.179 1.29659L143.003 0.0126614C142.822 0.716182 138.802 10.3265 138.818 24.6967C138.83 35.5293 140.032 41.963 141.156 45.7087C132.957 46.224 121.573 51.4637 115.999 53.9825C106.101 58.4584 86.5207 70.502 81.0175 79.9429C80.7813 80.347 80.6005 80.9565 80.4751 81.6391L76.614 81.6424C76.526 81.0561 76.3393 80.4847 76.06 79.9471C70.544 70.5156 50.9375 58.5055 41.0255 54.0465C35.4421 51.5373 24.0582 46.3205 15.8583 45.8157C16.9703 42.0681 18.1543 35.6358 18.1424 24.7998C18.1267 10.4295 14.0815 0.826108 13.9151 0.122884L8.73819 1.41565C8.77781 1.58275 12.7992 11.0782 12.8142 24.8043C12.8276 37.0679 11.2138 43.5215 10.0261 46.6354C9.6235 46.8098 9.24298 47.0214 8.89095 47.2666Z" fill="#273AAA"/>
</svg>
