<svg width="29" height="32" viewBox="0 0 29 32" fill="none" xmlns="http://www.w3.org/2000/svg">
<path d="M26.1405 16.1978C26.026 16.1307 25.9002 16.0664 25.7701 16.0036C25.9002 15.9407 26.026 15.8765 26.1405 15.8093C26.7887 15.4369 27.3576 14.9387 27.8145 14.3432C28.2713 13.7478 28.6071 13.0669 28.8025 12.3398C28.9978 11.6127 29.0489 10.8537 28.9528 10.1065C28.8567 9.35939 28.6153 8.63883 28.2425 7.98634C27.8696 7.33386 27.3727 6.76233 26.7804 6.30467C26.188 5.84701 25.512 5.51225 24.7911 5.31968C24.0702 5.1271 23.3187 5.0805 22.5799 5.18257C21.8411 5.28463 21.1296 5.53335 20.4863 5.91439C20.3718 5.98152 20.2531 6.05722 20.1358 6.14149C20.1471 5.99866 20.1541 5.85584 20.1541 5.71301C20.1541 4.19783 19.5584 2.7447 18.4981 1.6733C17.4377 0.601905 15.9996 0 14.5 0C13.0004 0 11.5623 0.601905 10.5019 1.6733C9.44157 2.7447 8.84586 4.19783 8.84586 5.71301C8.84586 5.84727 8.84586 5.99009 8.86424 6.14149C8.74692 6.06008 8.62818 5.98152 8.51368 5.91439C7.87041 5.53335 7.15889 5.28463 6.4201 5.18257C5.68131 5.0805 4.92983 5.1271 4.20893 5.31968C3.48803 5.51225 2.81195 5.84701 2.21962 6.30467C1.62728 6.76233 1.13039 7.33386 0.757547 7.98634C0.384705 8.63883 0.143278 9.35939 0.0471653 10.1065C-0.0489472 10.8537 0.00215337 11.6127 0.197525 12.3398C0.392897 13.0669 0.72868 13.7478 1.18554 14.3432C1.64241 14.9387 2.21133 15.4369 2.85955 15.8093C2.97404 15.8765 3.09985 15.9407 3.22989 16.0036C3.09985 16.0664 2.97404 16.1307 2.85955 16.1978C2.21133 16.5702 1.64241 17.0685 1.18554 17.6639C0.72868 18.2594 0.392897 18.9403 0.197525 19.6674C0.00215337 20.3945 -0.0489472 21.1535 0.0471653 21.9006C0.143278 22.6478 0.384705 23.3683 0.757547 24.0208C1.13039 24.6733 1.62728 25.2448 2.21962 25.7025C2.81195 26.1601 3.48803 26.4949 4.20893 26.6875C4.92983 26.88 5.68131 26.9266 6.4201 26.8246C7.15889 26.7225 7.87041 26.4738 8.51368 26.0927C8.62818 26.0256 8.74692 25.9499 8.86424 25.8657C8.85293 26.0085 8.84586 26.1513 8.84586 26.287C8.84586 27.8022 9.44157 29.2553 10.5019 30.3267C11.5623 31.3981 13.0004 32 14.5 32C15.9996 32 17.4377 31.3981 18.4981 30.3267C19.5584 29.2553 20.1541 27.8022 20.1541 26.287C20.1541 26.1527 20.1471 26.0099 20.1358 25.8657C20.2531 25.9471 20.3718 26.0256 20.4863 26.0927C21.3428 26.5941 22.3151 26.8582 23.3049 26.8583C23.8023 26.8576 24.2974 26.7914 24.7778 26.6612C25.858 26.3687 26.8281 25.759 27.5654 24.9094C28.3026 24.0598 28.774 23.0084 28.9199 21.8881C29.0657 20.7678 28.8795 19.6289 28.3848 18.6155C27.89 17.6022 27.109 16.7598 26.1405 16.195V16.1978ZM11.1075 16.0036C11.1075 15.3256 11.3065 14.6629 11.6793 14.0992C12.052 13.5355 12.5819 13.0961 13.2018 12.8367C13.8216 12.5772 14.5038 12.5094 15.1618 12.6416C15.8199 12.7739 16.4244 13.1004 16.8988 13.5797C17.3733 14.0591 17.6964 14.6699 17.8273 15.3348C17.9582 15.9998 17.891 16.689 17.6342 17.3153C17.3775 17.9417 16.9427 18.477 16.3848 18.8537C15.8269 19.2303 15.171 19.4314 14.5 19.4314C13.6003 19.4314 12.7374 19.0702 12.1012 18.4274C11.4649 17.7846 11.1075 16.9127 11.1075 16.0036ZM21.6171 7.89252C22.003 7.66745 22.4289 7.52137 22.8706 7.46261C23.3123 7.40386 23.7611 7.43359 24.1915 7.5501C24.6218 7.66661 25.0252 7.86763 25.3786 8.14166C25.7321 8.4157 26.0287 8.7574 26.2514 9.14724C26.4742 9.53709 26.6187 9.96745 26.6769 10.4137C26.735 10.8601 26.7056 11.3136 26.5903 11.7484C26.475 12.1832 26.2761 12.5908 26.0048 12.9479C25.7336 13.305 25.3955 13.6047 25.0096 13.8298C24.1233 14.3482 22.379 14.7053 20.0396 14.8567C19.7929 13.6475 19.165 12.5516 18.2501 11.7331C19.5506 9.75925 20.7309 8.41098 21.6171 7.89252ZM14.5 2.29235C15.3997 2.29235 16.2626 2.65349 16.8988 3.29633C17.5351 3.93916 17.8925 4.81104 17.8925 5.72015C17.8925 6.75421 17.3271 8.46097 16.2867 10.5848C15.1272 10.1925 13.8728 10.1925 12.7133 10.5848C11.6729 8.46097 11.1075 6.75421 11.1075 5.72015C11.1075 4.81104 11.4649 3.93916 12.1012 3.29633C12.7374 2.65349 13.6003 2.29235 14.5 2.29235ZM2.74788 9.14796C2.97057 8.75795 3.26712 8.4161 3.6206 8.14193C3.97407 7.86775 4.37755 7.66663 4.80797 7.55004C5.23839 7.43346 5.68732 7.4037 6.12913 7.46246C6.57094 7.52123 6.99696 7.66736 7.38286 7.89252C8.26914 8.41098 9.44944 9.75925 10.7499 11.7331C9.83422 12.5527 9.2063 13.6502 8.96036 14.861C6.62096 14.7096 4.87666 14.3525 3.99038 13.8355C3.60383 13.6105 3.265 13.3106 2.99328 12.9531C2.72157 12.5957 2.5223 12.1875 2.40689 11.7521C2.29148 11.3167 2.26219 10.8626 2.3207 10.4157C2.37921 9.96887 2.52438 9.53806 2.74788 9.14796ZM7.38286 24.1146C6.60364 24.5692 5.67763 24.6923 4.80854 24.457C3.93944 24.2217 3.19846 23.6472 2.74859 22.8599C2.29872 22.0726 2.17681 21.1369 2.40969 20.2588C2.64257 19.3806 3.21116 18.6319 3.99038 18.1774C4.87666 17.6589 6.62096 17.3019 8.96036 17.1505C9.20715 18.3597 9.835 19.4556 10.7499 20.274C9.44944 22.2479 8.26914 23.5962 7.38286 24.1146ZM14.5 29.7148C13.6003 29.7148 12.7374 29.3537 12.1012 28.7108C11.4649 28.068 11.1075 27.1961 11.1075 26.287C11.1075 25.2529 11.6729 23.5462 12.7133 21.4224C13.8728 21.8146 15.1272 21.8146 16.2867 21.4224C17.3271 23.5462 17.8925 25.2529 17.8925 26.287C17.8925 27.1961 17.5351 28.068 16.8988 28.7108C16.2626 29.3537 15.3997 29.7148 14.5 29.7148ZM26.2521 22.8592C26.0294 23.2492 25.7329 23.591 25.3794 23.8652C25.0259 24.1394 24.6225 24.3405 24.192 24.4571C23.7616 24.5737 23.3127 24.6034 22.8709 24.5447C22.4291 24.4859 22.003 24.3398 21.6171 24.1146C20.7309 23.5962 19.5506 22.2479 18.2501 20.274C19.1658 19.4545 19.7937 18.3569 20.0396 17.1462C22.379 17.2976 24.1233 17.6546 25.0096 18.1717C25.3962 18.3967 25.735 18.6965 26.0067 19.054C26.2784 19.4115 26.4777 19.8196 26.5931 20.255C26.7085 20.6904 26.7378 21.1446 26.6793 21.5914C26.6208 22.0383 26.4756 22.4691 26.2521 22.8592Z" fill="#FC4D5C"/>
</svg>
