<svg width="120" height="57" viewBox="0 0 120 57" fill="none" xmlns="http://www.w3.org/2000/svg">
<rect x="1" y="1" width="118" height="55" rx="27.5" fill="#F7C7D9" stroke="white" stroke-width="2"/>
<path d="M58.66 36.24C57.2333 36.24 56.0133 35.9933 55 35.5C53.9867 34.9933 53.2133 34.2133 52.68 33.16C52.16 32.1067 51.9 30.7667 51.9 29.14C51.9 26.74 52.4867 24.96 53.66 23.8C54.8467 22.6267 56.5133 22.04 58.66 22.04C59.8333 22.04 60.8867 22.24 61.82 22.64C62.7533 23.04 63.4867 23.64 64.02 24.44C64.5667 25.24 64.84 26.2467 64.84 27.46H61.84C61.84 26.82 61.7067 26.28 61.44 25.84C61.1867 25.4 60.82 25.0667 60.34 24.84C59.8733 24.6 59.3267 24.48 58.7 24.48C57.8467 24.48 57.14 24.6467 56.58 24.98C56.0333 25.3133 55.6267 25.8067 55.36 26.46C55.1067 27.1 54.98 27.8867 54.98 28.82V29.44C54.98 30.4 55.1133 31.2067 55.38 31.86C55.6467 32.5 56.0467 32.9867 56.58 33.32C57.1267 33.64 57.8267 33.8 58.68 33.8C59.3467 33.8 59.9267 33.6867 60.42 33.46C60.9133 33.2333 61.2933 32.9 61.56 32.46C61.8267 32.02 61.96 31.48 61.96 30.84H64.84C64.84 32.0533 64.5733 33.06 64.04 33.86C63.52 34.66 62.7933 35.26 61.86 35.66C60.9267 36.0467 59.86 36.24 58.66 36.24ZM66.948 36V21.54H69.728V26.64H69.868C70.0946 26.36 70.3613 26.12 70.668 25.92C70.988 25.7067 71.3413 25.54 71.728 25.42C72.128 25.3 72.5613 25.24 73.028 25.24C73.7213 25.24 74.328 25.3667 74.848 25.62C75.368 25.8733 75.768 26.2733 76.048 26.82C76.3413 27.3667 76.488 28.08 76.488 28.96V36H73.708V29.4C73.708 29.0667 73.668 28.7867 73.588 28.56C73.508 28.32 73.388 28.1267 73.228 27.98C73.0813 27.82 72.8946 27.7067 72.668 27.64C72.4413 27.5733 72.188 27.54 71.908 27.54C71.4946 27.54 71.1213 27.64 70.788 27.84C70.4546 28.04 70.1946 28.3133 70.008 28.66C69.8213 29.0067 69.728 29.4067 69.728 29.86V36H66.948ZM81.7592 36.24C81.4126 36.24 81.0392 36.2 80.6392 36.12C80.2526 36.04 79.8859 35.9 79.5392 35.7C79.1926 35.4867 78.9059 35.1867 78.6792 34.8C78.4659 34.4 78.3592 33.8933 78.3592 33.28C78.3592 32.5467 78.5192 31.94 78.8392 31.46C79.1592 30.98 79.6126 30.6067 80.1992 30.34C80.7992 30.06 81.5126 29.8667 82.3392 29.76C83.1659 29.6533 84.0792 29.6 85.0792 29.6V28.82C85.0792 28.5133 85.0259 28.2467 84.9192 28.02C84.8259 27.7933 84.6526 27.6133 84.3992 27.48C84.1592 27.3467 83.8192 27.28 83.3792 27.28C82.9392 27.28 82.5792 27.3333 82.2992 27.44C82.0326 27.5467 81.8392 27.6867 81.7192 27.86C81.6126 28.02 81.5592 28.2 81.5592 28.4V28.64H78.8592C78.8459 28.5733 78.8392 28.5133 78.8392 28.46C78.8392 28.3933 78.8392 28.3133 78.8392 28.22C78.8392 27.6067 79.0259 27.08 79.3992 26.64C79.7726 26.1867 80.2992 25.84 80.9792 25.6C81.6592 25.36 82.4526 25.24 83.3592 25.24C84.3326 25.24 85.1459 25.3667 85.7992 25.62C86.4659 25.8733 86.9726 26.2467 87.3192 26.74C87.6792 27.2333 87.8592 27.8533 87.8592 28.6V33.38C87.8592 33.62 87.9259 33.8 88.0592 33.92C88.2059 34.0267 88.3659 34.08 88.5392 34.08H89.1992V35.9C89.0659 35.9667 88.8592 36.0333 88.5792 36.1C88.2992 36.18 87.9592 36.22 87.5592 36.22C87.1726 36.22 86.8259 36.16 86.5192 36.04C86.2259 35.9333 85.9792 35.78 85.7792 35.58C85.5792 35.3667 85.4392 35.1133 85.3592 34.82H85.2192C84.9926 35.1 84.7126 35.3467 84.3792 35.56C84.0592 35.7733 83.6792 35.94 83.2392 36.06C82.8126 36.18 82.3192 36.24 81.7592 36.24ZM82.6992 34.14C83.0726 34.14 83.4059 34.0867 83.6992 33.98C83.9926 33.86 84.2392 33.7067 84.4392 33.52C84.6392 33.32 84.7926 33.08 84.8992 32.8C85.0192 32.52 85.0792 32.22 85.0792 31.9V31.32C84.3326 31.32 83.6659 31.3733 83.0792 31.48C82.4926 31.5733 82.0259 31.74 81.6792 31.98C81.3459 32.22 81.1792 32.5533 81.1792 32.98C81.1792 33.22 81.2392 33.4267 81.3592 33.6C81.4792 33.7733 81.6526 33.9067 81.8792 34C82.1059 34.0933 82.3792 34.14 82.6992 34.14ZM93.7208 36.24C93.0541 36.24 92.5141 36.12 92.1008 35.88C91.6874 35.64 91.3874 35.32 91.2008 34.92C91.0141 34.5067 90.9208 34.0533 90.9208 33.56V27.62H89.6208V25.48H91.0208L91.5408 22.48H93.7008V25.48H95.6208V27.62H93.7008V33.1C93.7008 33.42 93.7741 33.6667 93.9208 33.84C94.0674 34 94.3074 34.08 94.6408 34.08H95.6208V35.92C95.4608 35.9733 95.2741 36.02 95.0608 36.06C94.8474 36.1133 94.6208 36.1533 94.3808 36.18C94.1408 36.22 93.9208 36.24 93.7208 36.24Z" fill="#273AAA"/>
<circle cx="31" cy="29" r="8" fill="#FF004F" stroke="white" stroke-width="2"/>
</svg>
