<svg width="22" height="20" viewBox="0 0 22 20" fill="none" xmlns="http://www.w3.org/2000/svg">
<path d="M11 1.73589C9.72012 0.553742 8.04276 -0.0670386 6.32513 0.00574824C4.60751 0.0785351 2.98532 0.839139 1.80404 2.12558C0.622756 3.41203 -0.0242889 5.12266 0.00069765 6.8932C0.0256842 8.66374 0.720728 10.3543 1.93781 11.6048L9.44548 19.3369C9.85781 19.7615 10.417 20 11 20C11.583 20 12.1422 19.7615 12.5545 19.3369L20.0622 11.6048C21.2793 10.3543 21.9743 8.66374 21.9993 6.8932C22.0243 5.12266 21.3772 3.41203 20.196 2.12558C19.0147 0.839139 17.3925 0.0785351 15.6749 0.00574824C13.9572 -0.0670386 12.2799 0.553742 11 1.73589ZM9.71153 3.59757L10.2227 4.12301C10.4289 4.3353 10.7085 4.45456 11 4.45456C11.2915 4.45456 11.5711 4.3353 11.7773 4.12301L12.2885 3.59757C12.6941 3.16494 13.1794 2.81987 13.7159 2.58247C14.2524 2.34508 14.8294 2.22012 15.4133 2.2149C15.9972 2.20967 16.5763 2.32428 17.1167 2.55203C17.6572 2.77979 18.1482 3.11612 18.5611 3.54142C18.974 3.96672 19.3005 4.47247 19.5216 5.02914C19.7427 5.58581 19.854 6.18227 19.8489 6.78372C19.8438 7.38516 19.7225 7.97953 19.4921 8.53217C19.2616 9.0848 18.9266 9.58462 18.5066 10.0025L11 17.7357L3.49344 10.0025C2.69239 9.14817 2.24915 8.00397 2.25917 6.81632C2.26919 5.62866 2.73167 4.49258 3.547 3.65275C4.36234 2.81292 5.46529 2.33654 6.61831 2.32622C7.77132 2.3159 8.88215 2.77246 9.71153 3.59757Z" fill="#F7C7D9"/>
<path d="M11 1.73589C9.72012 0.553742 8.04276 -0.0670386 6.32513 0.00574824C4.60751 0.0785351 2.98532 0.839139 1.80404 2.12558C0.622756 3.41203 -0.0242889 5.12266 0.00069765 6.8932C0.0256842 8.66374 0.720728 10.3543 1.93781 11.6048L9.44548 19.3369C9.85781 19.7615 10.417 20 11 20C11.583 20 12.1422 19.7615 12.5545 19.3369L20.0622 11.6048C21.2793 10.3543 21.9743 8.66374 21.9993 6.8932C22.0243 5.12266 21.3772 3.41203 20.196 2.12558C19.0147 0.839139 17.3925 0.0785351 15.6749 0.00574824C13.9572 -0.0670386 12.2799 0.553742 11 1.73589ZM9.71153 3.59757L10.2227 4.12301C10.4289 4.3353 10.7085 4.45456 11 4.45456C11.2915 4.45456 11.5711 4.3353 11.7773 4.12301L12.2885 3.59757C12.6941 3.16494 13.1794 2.81987 13.7159 2.58247C14.2524 2.34508 14.8294 2.22012 15.4133 2.2149C15.9972 2.20967 16.5763 2.32428 17.1167 2.55203C17.6572 2.77979 18.1482 3.11612 18.5611 3.54142C18.974 3.96672 19.3005 4.47247 19.5216 5.02914C19.7427 5.58581 19.854 6.18227 19.8489 6.78372C19.8438 7.38516 19.7225 7.97953 19.4921 8.53217C19.2616 9.0848 18.9266 9.58462 18.5066 10.0025L11 17.7357L3.49344 10.0025C2.69239 9.14817 2.24915 8.00397 2.25917 6.81632C2.26919 5.62866 2.73167 4.49258 3.547 3.65275C4.36234 2.81292 5.46529 2.33654 6.61831 2.32622C7.77132 2.3159 8.88215 2.77246 9.71153 3.59757Z" fill="#F7C7D9"/>
<path d="M11 1.73589C9.72012 0.553742 8.04276 -0.0670386 6.32513 0.00574824C4.60751 0.0785351 2.98532 0.839139 1.80404 2.12558C0.622756 3.41203 -0.0242889 5.12266 0.00069765 6.8932C0.0256842 8.66374 0.720728 10.3543 1.93781 11.6048L9.44548 19.3369C9.85781 19.7615 10.417 20 11 20C11.583 20 12.1422 19.7615 12.5545 19.3369L20.0622 11.6048C21.2793 10.3543 21.9743 8.66374 21.9993 6.8932C22.0243 5.12266 21.3772 3.41203 20.196 2.12558C19.0147 0.839139 17.3925 0.0785351 15.6749 0.00574824C13.9572 -0.0670386 12.2799 0.553742 11 1.73589ZM9.71153 3.59757L10.2227 4.12301C10.4289 4.3353 10.7085 4.45456 11 4.45456C11.2915 4.45456 11.5711 4.3353 11.7773 4.12301L12.2885 3.59757C12.6941 3.16494 13.1794 2.81987 13.7159 2.58247C14.2524 2.34508 14.8294 2.22012 15.4133 2.2149C15.9972 2.20967 16.5763 2.32428 17.1167 2.55203C17.6572 2.77979 18.1482 3.11612 18.5611 3.54142C18.974 3.96672 19.3005 4.47247 19.5216 5.02914C19.7427 5.58581 19.854 6.18227 19.8489 6.78372C19.8438 7.38516 19.7225 7.97953 19.4921 8.53217C19.2616 9.0848 18.9266 9.58462 18.5066 10.0025L11 17.7357L3.49344 10.0025C2.69239 9.14817 2.24915 8.00397 2.25917 6.81632C2.26919 5.62866 2.73167 4.49258 3.547 3.65275C4.36234 2.81292 5.46529 2.33654 6.61831 2.32622C7.77132 2.3159 8.88215 2.77246 9.71153 3.59757Z" fill="#FC4D5C"/>
</svg>
