<svg width="88" height="94" viewBox="0 0 88 94" fill="none" xmlns="http://www.w3.org/2000/svg">
<path d="M88 0L62.1498 4.35107L70.1996 8.21687L63.4778 12.6616C64.5732 13.9972 65.4847 15.5536 66.1514 17.2995L73.2052 12.6369L72.8149 22.7777L88 0ZM52.4108 10.9498C52.1115 10.9471 51.8122 10.9575 51.5137 10.9809C47.9164 11.2592 44.3391 13.468 41.9205 18.3455L40.4469 21.3209L38.8741 18.4075C35.6951 12.5243 30.012 10.3998 25.2266 11.4042C20.4419 12.4082 16.5929 16.2584 16.8101 23.5618C16.9493 28.2443 19.0971 31.8774 22.2387 35.3773L25.2094 33.4101C26.5268 32.5384 27.8916 32.1179 29.1585 32.1525C29.5809 32.1641 29.992 32.2278 30.3876 32.3394C31.9693 32.785 33.1842 33.9695 33.8705 35.3896C35.2431 38.2297 34.5912 42.2929 31.4008 44.4037L28.5701 46.2775C31.4317 59.3438 23.8577 66.1826 23.8577 73.3012C23.8577 77.3236 27.1624 80.2798 30.3581 80.2798C33.6252 80.2798 36.7303 77.5192 36.7303 73.6995C36.7303 66.2344 28.7072 57.5637 33.5499 46.3709C36.1415 49.0686 38.5765 52.0702 40.4231 55.6527C41.7004 53.2975 43.2383 51.2144 44.9024 49.3154C49.8697 55.6601 43.7723 62.5819 43.7723 67.8416C43.7723 70.5137 45.9423 72.4484 48.2284 72.4484C50.4645 72.4484 52.7776 70.3827 52.7776 67.5679C52.7776 62.0831 45.1721 54.8764 52.463 42.0137C52.9118 41.6166 53.3526 41.2278 53.791 40.8369C56.5953 45.1683 52.6205 49.8192 52.6205 53.387C52.6205 55.272 54.1526 56.636 55.7659 56.636C57.3435 56.636 58.9755 55.1798 58.9755 53.1937C58.9755 49.2779 53.4831 45.0834 58.9401 35.8253C59.8262 34.8293 60.6241 33.8163 61.2994 32.7689C63.0087 30.1168 63.9915 27.2971 63.8856 23.6737C63.6869 16.8828 59.7265 12.558 55.0786 11.3165C54.2059 11.0827 53.3105 10.9594 52.4108 10.9494V10.9498ZM28.8556 35.8691C28.384 35.894 27.7913 36.0783 27.0439 36.5727L0 54.489V60.8138L29.5663 41.2417C31.3054 40.0913 31.3669 38.321 30.7779 37.1022C30.4834 36.4926 30.05 36.0922 29.5024 35.9379C29.3536 35.8972 29.2011 35.8742 29.0476 35.8693C28.9852 35.8673 28.9227 35.8661 28.8556 35.8693V35.8691ZM56.325 69.1247C55.9332 74.9654 52.9178 76.7463 52.9178 79.9998C52.9178 81.6149 54.5782 83.0502 56.325 83.0502C58.0337 83.0502 59.7966 81.6195 59.7966 79.9187C59.7966 76.5302 56.8154 74.9744 56.325 69.1245V69.1247ZM41.1574 72.6785C40.4063 81.6368 35.8397 84.0174 35.8397 89.2067C35.8397 91.8107 38.5411 94 41.1574 94C43.8322 94 46.3764 91.798 46.3764 89.3246C46.3764 84.3433 41.7572 81.6221 41.1574 72.6785Z" fill="#FC4D5C"/>
</svg>
