<svg width="118" height="102" viewBox="0 0 118 102" fill="none" xmlns="http://www.w3.org/2000/svg">
<path fill-rule="evenodd" clip-rule="evenodd" d="M37.832 23.8532C33.1274 22.0683 27.9479 21.842 23.0973 23.2094C18.2467 24.5768 13.9964 27.4615 11.0058 31.4158C8.01522 35.3701 6.45169 40.1728 6.55785 45.0787C6.664 49.9846 8.43391 54.7192 11.5929 58.5479C14.7519 62.3765 19.1233 65.0851 24.0287 66.2533C28.9341 67.4214 34.0993 66.9838 38.7226 65.0084C43.3458 63.0329 47.1687 59.6301 49.5979 55.328C52.0271 51.0259 52.9267 46.065 52.1572 41.2154C52.0918 40.8021 52.1109 40.3804 52.2132 39.9743C52.3156 39.5682 52.4992 39.1857 52.7537 38.8485C53.0082 38.5114 53.3286 38.2263 53.6965 38.0094C54.0645 37.7926 54.4728 37.6483 54.8981 37.5847C55.3235 37.5212 55.7575 37.5397 56.1755 37.6391C56.5935 37.7385 56.9872 37.917 57.3342 38.1642C57.6812 38.4115 57.9747 38.7228 58.1979 39.0802C58.4211 39.4377 58.5697 39.8344 58.6351 40.2476C59.6233 46.4828 58.4656 52.8605 55.3418 58.3911C52.2179 63.9218 47.3025 68.296 41.3583 70.8352C35.4141 73.3743 28.7735 73.9363 22.4669 72.434C16.1603 70.9317 10.5405 67.4491 6.47932 62.5266C2.41818 57.6041 0.142893 51.5169 0.0065091 45.2096C-0.129875 38.9024 1.88028 32.7277 5.72504 27.6439C9.5698 22.56 15.0342 18.8511 21.2702 17.0928C27.5063 15.3345 34.1654 15.6251 40.2141 17.9194C40.6204 18.0675 40.9924 18.2925 41.3085 18.5813C41.6245 18.8702 41.8784 19.2172 42.0553 19.6021C42.2323 19.9871 42.3287 20.4024 42.3391 20.8238C42.3495 21.2453 42.2736 21.6646 42.1159 22.0573C41.9581 22.4501 41.7217 22.8085 41.4202 23.1117C41.1187 23.415 40.7582 23.657 40.3597 23.8238C39.9612 23.9906 39.5325 24.0788 39.0986 24.0833C38.6647 24.0878 38.2341 24.0117 37.832 23.8532Z" fill="#FC4D5C"/>
<path fill-rule="evenodd" clip-rule="evenodd" d="M26.2134 98.726V73.2591C26.2134 72.4148 26.5586 71.6051 27.1731 71.0081C27.7875 70.4111 28.621 70.0757 29.49 70.0757C30.359 70.0757 31.1924 70.4111 31.8069 71.0081C32.4213 71.6051 32.7666 72.4148 32.7666 73.2591V98.726C32.7666 99.5703 32.4213 100.38 31.8069 100.977C31.1924 101.574 30.359 101.909 29.49 101.909C28.621 101.909 27.7875 101.574 27.1731 100.977C26.5586 100.38 26.2134 99.5703 26.2134 98.726Z" fill="#FC4D5C"/>
<path fill-rule="evenodd" clip-rule="evenodd" d="M16.3838 82.8094C16.3838 81.9651 16.729 81.1554 17.3435 80.5584C17.958 79.9614 18.7914 79.626 19.6604 79.626H39.3199C40.1889 79.626 41.0223 79.9614 41.6368 80.5584C42.2513 81.1554 42.5965 81.9651 42.5965 82.8094C42.5965 83.6537 42.2513 84.4634 41.6368 85.0604C41.0223 85.6574 40.1889 85.9927 39.3199 85.9927H19.6604C18.7914 85.9927 17.958 85.6574 17.3435 85.0604C16.729 84.4634 16.3838 83.6537 16.3838 82.8094ZM75.0412 23.1625C71.4101 22.1666 67.5821 22.0563 63.8966 22.8416C60.2111 23.6268 56.7819 25.2833 53.913 27.6641C51.0441 30.045 48.824 33.0767 47.4496 36.4906C46.0751 39.9044 45.5888 43.595 46.0336 47.2352C46.0868 47.6514 46.0548 48.0738 45.9394 48.478C45.824 48.8821 45.6276 49.2602 45.3613 49.5904C45.0951 49.9206 44.7643 50.1964 44.388 50.402C44.0117 50.6076 43.5973 50.7389 43.1686 50.7884C42.7399 50.8379 42.3054 50.8046 41.89 50.6904C41.4745 50.5762 41.0865 50.3834 40.748 50.123C40.4095 49.8626 40.1273 49.5398 39.9177 49.1732C39.708 48.8065 39.575 48.4032 39.5263 47.9865C38.7608 41.7217 40.145 35.3866 43.4642 29.9642C46.7833 24.5419 51.8518 20.3355 57.8831 17.9979C63.9144 15.6603 70.5712 15.3221 76.8205 17.0358C83.0699 18.7496 88.5623 22.4194 92.4454 27.4758C96.3286 32.5323 98.3853 38.6925 98.2965 45.0007C98.2077 51.3089 95.9782 57.4122 91.9542 62.3636C87.9301 67.3149 82.3365 70.8374 76.0412 72.3845C69.746 73.9315 63.1012 73.4165 57.138 70.9195C56.7428 70.7541 56.3849 70.5148 56.0849 70.2151C55.7849 69.9154 55.5486 69.5612 55.3895 69.1728C55.0681 68.3884 55.0806 67.512 55.4243 66.7365C55.768 65.961 56.4147 65.35 57.2221 65.0378C58.0296 64.7255 58.9316 64.7377 59.7298 65.0716C62.6125 66.2783 65.7195 66.8973 68.8584 66.8903C71.9974 66.8832 75.1014 66.2503 77.9784 65.0307C80.8553 63.811 83.444 62.0306 85.5841 59.7997C87.7243 57.5687 89.3703 54.9348 90.4203 52.0608C91.4703 49.1868 91.9019 46.1341 91.6885 43.0915C91.475 40.0489 90.621 37.0813 89.1794 34.3723C87.7377 31.6634 85.7391 29.2707 83.3072 27.3425C80.8753 25.4143 78.0619 23.9916 75.0412 23.1625Z" fill="#FC4D5C"/>
<path fill-rule="evenodd" clip-rule="evenodd" d="M87.7904 29.3504C87.1761 28.7534 86.8311 27.9439 86.8311 27.0997C86.8311 26.2556 87.1761 25.4461 87.7904 24.8491L112.365 0.9738C112.667 0.669755 113.029 0.427237 113.428 0.2604C113.828 0.0935623 114.258 0.00574635 114.693 0.00207332C115.128 -0.00159971 115.56 0.0789459 115.962 0.239009C116.365 0.399072 116.731 0.635447 117.039 0.934342C117.346 1.23324 117.589 1.58867 117.754 1.97989C117.919 2.37112 118.002 2.7903 117.998 3.21299C117.994 3.63567 117.904 4.0534 117.732 4.44178C117.56 4.83016 117.311 5.18143 116.998 5.47509L92.4235 29.3504C91.809 29.9472 90.9758 30.2824 90.1069 30.2824C89.2381 30.2824 88.4048 29.9472 87.7904 29.3504Z" fill="#FC4D5C"/>
<path fill-rule="evenodd" clip-rule="evenodd" d="M114.432 22.325C114.001 22.3196 113.576 22.2319 113.181 22.0669C112.786 21.9019 112.428 21.6629 112.127 21.3634C111.827 21.064 111.59 20.71 111.431 20.3217C111.271 19.9333 111.192 19.5183 111.198 19.1002L111.362 6.44951L98.3405 6.60868C97.4715 6.61966 96.6336 6.29479 96.0111 5.70556C95.3886 5.11632 95.0326 4.31098 95.0213 3.46669C95.01 2.62241 95.3443 1.80835 95.9508 1.20359C96.5573 0.598828 97.3863 0.252911 98.2553 0.241936L118 0L117.751 19.183C117.745 19.6011 117.655 20.014 117.485 20.3981C117.315 20.7823 117.069 21.1302 116.761 21.4219C116.453 21.7137 116.089 21.9436 115.689 22.0986C115.289 22.2535 114.862 22.3305 114.432 22.325Z" fill="#FC4D5C"/>
</svg>
