<?xml version="1.0" encoding="utf-8"?>
<!-- Generator: Adobe Illustrator 28.0.0, SVG Export Plug-In . SVG Version: 6.00 Build 0)  -->
<svg version="1.1" id="Layer_1" xmlns="http://www.w3.org/2000/svg" xmlns:xlink="http://www.w3.org/1999/xlink" x="0px" y="0px"
	 viewBox="0 0 118 102" style="enable-background:new 0 0 118 102;" xml:space="preserve">
<style type="text/css">
	.st0{fill-rule:evenodd;clip-rule:evenodd;fill:#E1E4FF;}
</style>
<path class="st0" d="M37.8,23.9c-4.7-1.8-9.9-2-14.7-0.6c-4.9,1.4-9.1,4.3-12.1,8.2c-3,4-4.6,8.8-4.4,13.7c0.1,4.9,1.9,9.6,5,13.5
	c3.2,3.8,7.5,6.5,12.4,7.7c4.9,1.2,10.1,0.7,14.7-1.2c4.6-2,8.4-5.4,10.9-9.7s3.3-9.3,2.6-14.1c-0.1-0.4,0-0.8,0.1-1.2
	c0.1-0.4,0.3-0.8,0.5-1.1c0.3-0.3,0.6-0.6,0.9-0.8c0.4-0.2,0.8-0.4,1.2-0.4c0.4-0.1,0.9,0,1.3,0.1s0.8,0.3,1.2,0.5
	c0.3,0.2,0.6,0.6,0.9,0.9c0.2,0.4,0.4,0.8,0.4,1.2c1,6.2-0.2,12.6-3.3,18.1c-3.1,5.5-8,9.9-14,12.4c-5.9,2.5-12.6,3.1-18.9,1.6
	c-6.3-1.5-11.9-5-16-9.9c-4.1-4.9-6.3-11-6.5-17.3c-0.1-6.3,1.9-12.5,5.7-17.6c3.8-5.1,9.3-8.8,15.5-10.6c6.2-1.8,12.9-1.5,18.9,0.8
	c0.4,0.1,0.8,0.4,1.1,0.7c0.3,0.3,0.6,0.6,0.7,1c0.2,0.4,0.3,0.8,0.3,1.2c0,0.4-0.1,0.8-0.2,1.2c-0.2,0.4-0.4,0.8-0.7,1.1
	c-0.3,0.3-0.7,0.5-1.1,0.7c-0.4,0.2-0.8,0.3-1.3,0.3C38.7,24.1,38.2,24,37.8,23.9z"/>
<path class="st0" d="M26.2,98.7V73.3c0-0.8,0.3-1.7,1-2.3c0.6-0.6,1.4-0.9,2.3-0.9s1.7,0.3,2.3,0.9c0.6,0.6,1,1.4,1,2.3v25.5
	c0,0.8-0.3,1.7-1,2.3c-0.6,0.6-1.4,0.9-2.3,0.9s-1.7-0.3-2.3-0.9C26.6,100.4,26.2,99.6,26.2,98.7z"/>
<path class="st0" d="M16.4,82.8c0-0.8,0.3-1.7,1-2.3s1.4-0.9,2.3-0.9h19.7c0.9,0,1.7,0.3,2.3,0.9c0.6,0.6,1,1.4,1,2.3
	s-0.3,1.7-1,2.3C41,85.7,40.2,86,39.3,86H19.7c-0.9,0-1.7-0.3-2.3-0.9S16.4,83.7,16.4,82.8z M75,23.2c-3.6-1-7.5-1.1-11.1-0.3
	c-3.7,0.8-7.1,2.4-10,4.8c-2.9,2.4-5.1,5.4-6.5,8.8c-1.4,3.4-1.9,7.1-1.4,10.7c0.1,0.4,0,0.8-0.1,1.2c-0.1,0.4-0.3,0.8-0.6,1.1
	c-0.3,0.3-0.6,0.6-1,0.8s-0.8,0.3-1.2,0.4c-0.4,0-0.9,0-1.3-0.1c-0.4-0.1-0.8-0.3-1.1-0.6c-0.3-0.3-0.6-0.6-0.8-0.9
	c-0.2-0.4-0.3-0.8-0.4-1.2c-0.8-6.3,0.6-12.6,3.9-18c3.3-5.4,8.4-9.6,14.4-12s12.7-2.7,18.9-1c6.2,1.7,11.7,5.4,15.6,10.4
	c3.9,5.1,5.9,11.2,5.9,17.5S96,57.4,92,62.4c-4,5-9.6,8.5-15.9,10c-6.3,1.5-12.9,1-18.9-1.5c-0.4-0.2-0.8-0.4-1.1-0.7
	c-0.3-0.3-0.5-0.7-0.7-1c-0.3-0.8-0.3-1.7,0-2.4c0.3-0.8,1-1.4,1.8-1.7c0.8-0.3,1.7-0.3,2.5,0c2.9,1.2,6,1.8,9.1,1.8
	c3.1,0,6.2-0.6,9.1-1.9c2.9-1.2,5.5-3,7.6-5.2c2.1-2.2,3.8-4.9,4.8-7.7c1-2.9,1.5-5.9,1.3-9c-0.2-3-1.1-6-2.5-8.7
	c-1.4-2.7-3.4-5.1-5.9-7S78.1,24,75,23.2z"/>
<path class="st0" d="M87.8,29.4c-0.6-0.6-1-1.4-1-2.3c0-0.8,0.3-1.7,1-2.3L112.4,1c0.3-0.3,0.7-0.5,1.1-0.7c0.4-0.2,0.8-0.3,1.3-0.3
	s0.9,0.1,1.3,0.2c0.4,0.2,0.8,0.4,1.1,0.7c0.3,0.3,0.5,0.7,0.7,1c0.2,0.4,0.2,0.8,0.2,1.2c0,0.4-0.1,0.8-0.3,1.2
	c-0.2,0.4-0.4,0.7-0.7,1L92.4,29.4c-0.6,0.6-1.4,0.9-2.3,0.9C89.2,30.3,88.4,29.9,87.8,29.4z"/>
<path class="st0" d="M114.4,22.3c-0.4,0-0.9-0.1-1.3-0.3c-0.4-0.2-0.8-0.4-1.1-0.7c-0.3-0.3-0.5-0.7-0.7-1c-0.2-0.4-0.2-0.8-0.2-1.2
	l0.2-12.7l-13,0.2c-0.9,0-1.7-0.3-2.3-0.9c-0.6-0.6-1-1.4-1-2.2c0-0.8,0.3-1.7,0.9-2.3c0.6-0.6,1.4-1,2.3-1L118,0l-0.2,19.2
	c0,0.4-0.1,0.8-0.3,1.2c-0.2,0.4-0.4,0.7-0.7,1c-0.3,0.3-0.7,0.5-1.1,0.7C115.3,22.3,114.9,22.3,114.4,22.3z"/>
</svg>
