<svg width="46" height="52" viewBox="0 0 46 52" fill="none" xmlns="http://www.w3.org/2000/svg">
<path d="M15.1301 42.0589L16.8789 46.1583C17.188 46.8827 17.7721 47.4546 18.5027 47.7482C19.2334 48.0419 20.0508 48.0333 20.7752 47.7243L39.8929 39.5684C40.6172 39.2594 41.1891 38.6753 41.4828 37.9446C41.7765 37.2139 41.7679 36.3965 41.4589 35.6722L39.71 31.5728L15.1301 42.0589ZM13.965 39.3278L38.5449 28.8417L28.6413 5.62731C28.3323 4.90298 27.7482 4.33107 27.0175 4.03739C26.2868 3.74372 25.4694 3.75233 24.745 4.06134L5.62733 12.2172C4.903 12.5263 4.33109 13.1104 4.03741 13.841C3.74373 14.5717 3.75235 15.3891 4.06136 16.1135L13.965 39.3278ZM20.5736 51.0352C19.4871 51.4987 18.261 51.5117 17.1649 51.0711C16.0689 50.6306 15.1928 49.7728 14.7292 48.6863L0.747694 15.9131C0.284177 14.8266 0.271254 13.6004 0.711769 12.5044C1.15228 11.4084 2.01015 10.5322 3.09665 10.0687L24.9455 0.747676C26.032 0.284158 27.2581 0.271236 28.3541 0.711751C29.4501 1.15227 30.3263 2.01013 30.7898 3.09663L44.7714 35.8698C45.2349 36.9563 45.2478 38.1825 44.8073 39.2785C44.3668 40.3745 43.5089 41.2507 42.4224 41.7142L20.5736 51.0352ZM30.9248 39.3559C31.1565 39.8991 31.163 40.5122 30.9427 41.0602C30.7225 41.6082 30.2936 42.0463 29.7503 42.2781C29.2071 42.5098 28.594 42.5163 28.046 42.296C27.498 42.0758 27.0599 41.6468 26.8281 41.1036C26.5964 40.5603 26.5899 39.9473 26.8102 39.3992C27.0304 38.8512 27.4594 38.4132 28.0026 38.1814C28.5459 37.9496 29.1589 37.9432 29.7069 38.1634C30.255 38.3837 30.693 38.8126 30.9248 39.3559Z" fill="#FC4D5C"/>
</svg>
