<?xml version="1.0" encoding="UTF-8"?>
<svg id="Layer_1" data-name="Layer 1" xmlns="http://www.w3.org/2000/svg" viewBox="0 0 95.19 108.97">
  <defs>
    <style>
      .cls-1 {
        fill: #fc4d5c;
        stroke-width: 0px;
      }
    </style>
  </defs>
  <path class="cls-1" d="m10.87.3C11.27.11,11.71,0,12.14,0c.44,0,.87.09,1.27.27.4.19.77.46,1.08.81.31.35.56.77.73,1.22h0s0,.03,0,.03l.02.06.08.22.3.83c1.55,4.47,2.93,9,4.14,13.6,2.24,8.52,4.57,19.81,4.57,30.2,0,3.04-.39,5.86-1.03,8.5h48.55c-.68-2.77-1.03-5.63-1.03-8.5,0-10.39,2.32-21.68,4.57-30.2,1.21-4.6,2.6-9.14,4.14-13.6l.3-.83.08-.22.02-.06v-.02c.36-.91,1.01-1.62,1.82-1.98.81-.36,1.71-.35,2.51.04.8.39,1.43,1.12,1.77,2.04.33.92.34,1.95.02,2.87h0s-.01.06-.01.06l-.07.18-.27.75c-1.47,4.26-2.79,8.58-3.95,12.96-2.18,8.28-4.29,18.72-4.29,28.01,0,5.37,1.58,9.97,4.01,14.98.84,1.72,1.82,3.57,2.85,5.52,2.28,4.28,4.84,9.11,6.8,14.41,2.36,6.38,4.05,13.8,4.05,23,0,1.01-.35,1.97-.97,2.69-.62.71-1.47,1.11-2.35,1.11s-1.73-.4-2.35-1.11c-.62-.71-.97-1.68-.97-2.69,0-7.55-1.28-13.66-3.14-18.98-23.88.74-33.03,14.55-34.67,20.18-.22.75-.64,1.41-1.21,1.88-.56.46-1.24.72-1.94.72s-1.37-.25-1.94-.72c-.56-.47-.99-1.12-1.21-1.88-1.64-5.63-10.79-19.43-34.67-20.17-2.12,6.03-3.18,12.47-3.14,18.97,0,1.01-.35,1.97-.97,2.69-.62.71-1.47,1.11-2.35,1.11s-1.73-.4-2.35-1.11c-.62-.71-.97-1.68-.97-2.69,0-9.2,1.68-16.62,4.05-23,1.96-5.3,4.52-10.13,6.8-14.41,1.04-1.96,2.02-3.8,2.85-5.52,2.43-5.01,4.01-9.62,4.01-14.98,0-9.29-2.1-19.73-4.29-28.01-1.16-4.38-2.48-8.7-3.95-12.95-.09-.25-.18-.5-.27-.75l-.07-.18v-.05c-.19-.46-.28-.96-.28-1.46s.08-1,.24-1.46c.16-.46.4-.89.71-1.24.31-.36.67-.64,1.07-.84"/>
</svg>