<svg width="69" height="78" viewBox="0 0 69 78" fill="none" xmlns="http://www.w3.org/2000/svg">
<path d="M7.77733 0.217614C8.06427 0.077646 8.37248 0.00374781 8.68437 0.000138896C8.99625 -0.00347002 9.30571 0.0632811 9.59506 0.196581C9.88441 0.32988 10.148 0.527118 10.3707 0.777031C10.5935 1.02694 10.7711 1.32464 10.8933 1.65311V1.66036L10.8997 1.67124L10.9155 1.71474L10.9725 1.87061L11.1847 2.46149C12.2912 5.65575 13.28 8.90177 14.1487 12.191C15.7542 18.2882 17.4167 26.3575 17.4167 33.7924C17.4167 35.9674 17.1412 37.9829 16.6788 39.8751H51.4045C50.9163 37.8958 50.668 35.8491 50.6667 33.7924C50.6667 26.3575 52.3292 18.2882 53.9347 12.191C54.8031 8.9017 55.792 5.65567 56.8987 2.46149L57.1108 1.87061L57.1678 1.71474L57.1837 1.67124L57.1868 1.66036C57.4421 1.01222 57.909 0.500717 58.4875 0.241948C59.066 -0.0168199 59.71 -0.00588558 60.2816 0.272408C60.8531 0.550701 61.3067 1.07421 61.545 1.73073C61.7834 2.38726 61.7877 3.12456 61.5568 3.78461V3.79186L61.5473 3.82449L61.4967 3.95499L61.3067 4.49149C60.2528 7.53484 59.3104 10.6272 58.482 13.7606C56.9208 19.6802 55.4167 27.1514 55.4167 33.7924C55.4167 37.6312 56.5503 40.9227 58.2857 44.5079C58.8842 45.7404 59.584 47.0599 60.325 48.4591C61.9527 51.5222 63.7862 54.9769 65.189 58.7686C66.88 63.3325 68.0833 68.6395 68.0833 75.2189C68.0833 75.9399 67.8331 76.6314 67.3877 77.1413C66.9423 77.6512 66.3382 77.9376 65.7083 77.9376C65.0784 77.9376 64.4743 77.6512 64.029 77.1413C63.5836 76.6314 63.3333 75.9399 63.3333 75.2189C63.3333 69.8176 62.415 65.4495 61.0882 61.6469C44.0072 62.1797 37.4648 72.0542 36.2932 76.078C36.1348 76.618 35.8323 77.0874 35.4283 77.42C35.0243 77.7525 34.5393 77.9314 34.0417 77.9314C33.5441 77.9314 33.059 77.7525 32.6551 77.42C32.2511 77.0874 31.9485 76.618 31.7902 76.078C30.6185 72.0542 24.0762 62.1797 6.99517 61.6505C5.48237 65.9629 4.71971 70.5719 4.75 75.2189C4.75 75.9399 4.49978 76.6314 4.05438 77.1413C3.60898 77.6512 3.00489 77.9376 2.375 77.9376C1.74511 77.9376 1.14102 77.6512 0.695621 77.1413C0.250223 76.6314 0 75.9399 0 75.2189C0 68.6395 1.20333 63.3289 2.89433 58.7686C4.29717 54.9769 6.13067 51.5222 7.75833 48.4591C8.49933 47.0599 9.20233 45.7404 9.79767 44.5079C11.533 40.9227 12.6667 37.6276 12.6667 33.7924C12.6667 27.1514 11.1625 19.6802 9.60133 13.7606C8.77302 10.6284 7.83064 7.53719 6.77667 4.49511C6.71416 4.3159 6.65083 4.13706 6.58667 3.95861L6.536 3.82811L6.5265 3.79549C6.40365 3.46705 6.33855 3.11048 6.33493 2.75322C6.33131 2.39596 6.38924 2.04138 6.50541 1.70977C6.62158 1.37815 6.79371 1.076 7.01195 0.820588C7.2302 0.565176 7.49028 0.361511 7.77733 0.221239" fill="#FC4D5C"/>
</svg>
