<svg width="75" height="77" viewBox="0 0 75 77" fill="none" xmlns="http://www.w3.org/2000/svg">
<path d="M72.1154 19.963C67.5266 19.9582 63.1271 18.154 59.8823 14.946C56.6375 11.7381 54.8125 7.38855 54.8077 2.85185C54.8077 2.09549 54.5038 1.37011 53.9628 0.835288C53.4218 0.300462 52.6881 0 51.9231 0H37.5C36.735 0 36.0012 0.300462 35.4603 0.835288C34.9193 1.37011 34.6154 2.09549 34.6154 2.85185V49.9074C34.6148 51.1832 34.268 52.4355 33.611 53.5336C32.9541 54.6317 32.0112 55.5354 30.8806 56.1505C29.75 56.7656 28.4732 57.0694 27.1834 57.0304C25.8936 56.9914 24.6379 56.611 23.5475 55.9288C22.457 55.2465 21.5717 54.2875 20.9839 53.1518C20.3961 52.016 20.1273 50.7452 20.2056 49.4717C20.2839 48.1983 20.7063 46.9689 21.4289 45.9119C22.1515 44.8549 23.1477 44.0089 24.3137 43.4622C24.8069 43.2308 25.2236 42.8658 25.5153 42.4095C25.807 41.9533 25.9617 41.4246 25.9615 40.8849V25.6667C25.9617 25.2498 25.8695 24.838 25.6912 24.4601C25.513 24.0823 25.2532 23.7477 24.9301 23.4799C24.6069 23.2121 24.2283 23.0176 23.8209 22.9101C23.4136 22.8026 22.9873 22.7846 22.5721 22.8576C9.70312 25.1248 0 36.7532 0 49.9074C0 57.0928 2.88718 63.9839 8.0264 69.0648C13.1656 74.1456 20.1359 77 27.4038 77C34.6718 77 41.6421 74.1456 46.7813 69.0648C51.9205 63.9839 54.8077 57.0928 54.8077 49.9074V35.7515C60.1502 38.5073 66.0895 39.9398 72.1154 39.9259C72.8804 39.9259 73.6141 39.6255 74.1551 39.0906C74.6961 38.5558 75 37.8304 75 37.0741V22.8148C75 22.0585 74.6961 21.3331 74.1551 20.7983C73.6141 20.2634 72.8804 19.963 72.1154 19.963ZM69.2308 34.0939C63.5936 33.6 58.1959 31.611 53.607 28.3367C53.1757 28.0301 52.6671 27.8473 52.1374 27.8083C51.6076 27.7692 51.0773 27.8756 50.6048 28.1156C50.1323 28.3556 49.736 28.72 49.4596 29.1685C49.1832 29.617 49.0375 30.1322 49.0385 30.6574V49.9074C49.0385 55.5801 46.7591 61.0204 42.7018 65.0316C38.6446 69.0428 33.1417 71.2963 27.4038 71.2963C21.666 71.2963 16.1631 69.0428 12.1059 65.0316C8.04859 61.0204 5.76923 55.5801 5.76923 49.9074C5.76923 40.6745 11.7692 32.3935 20.1923 29.3741V39.2379C18.3276 40.4697 16.8175 42.1581 15.8091 44.1385C14.8008 46.1189 14.3287 48.3239 14.4387 50.5384C14.5488 52.7529 15.2373 54.9014 16.4372 56.7746C17.637 58.6478 19.3073 60.1817 21.2852 61.2268C23.2631 62.2719 25.4811 62.7925 27.7231 62.738C29.965 62.6835 32.1545 62.0556 34.078 60.9157C36.0015 59.7757 37.5935 58.1625 38.6987 56.2332C39.804 54.304 40.3848 52.1246 40.3846 49.9074V5.7037H49.2188C49.8675 10.7268 52.1845 15.3949 55.8064 18.9756C59.4282 22.5563 64.1499 24.8471 69.2308 25.4884V34.0939Z" fill="white"/>
</svg>
